<svg xmlns="http://www.w3.org/2000/svg" width="130" height="30"><g fill="none" fill-rule="nonzero" opacity=".99"><path fill="#FFF" d="M48.988 12.554a6.47 6.47 0 0 0-.888-1.983 4.122 4.122 0 0 0-1.538-1.376c-.629-.35-1.365-.513-2.189-.513-.888 0-1.625.187-2.231.56-.607.373-1.127.84-1.495 1.446a5.972 5.972 0 0 0-.845 2.03 10.279 10.279 0 0 0 .021 4.664c.195.77.477 1.446.889 2.03.39.582.931 1.049 1.538 1.398.628.35 1.408.537 2.297.537.91 0 1.668-.187 2.253-.56a4.475 4.475 0 0 0 1.452-1.446c.368-.606.628-1.283.801-2.076a11.08 11.08 0 0 0 .239-2.379c0-.816-.109-1.586-.304-2.332ZM39.607 6.63v2.262h.065c.433-.933 1.105-1.61 2.036-2.029.932-.42 1.929-.63 3.034-.63 1.235 0 2.296.233 3.206.723a6.51 6.51 0 0 1 2.275 1.936 8.69 8.69 0 0 1 1.365 2.799c.304 1.05.455 2.17.455 3.359 0 1.19-.151 2.309-.455 3.358-.303 1.05-.736 1.983-1.343 2.752-.607.793-1.365 1.4-2.275 1.866-.91.443-1.972.677-3.185.677-.39 0-.823-.047-1.3-.117a7.297 7.297 0 0 1-1.43-.42 5.31 5.31 0 0 1-1.343-.793c-.412-.326-.759-.746-1.062-1.236h-.065v8.56h-2.622V6.653h2.644V6.63ZM64.35 14.7c-.325.256-.758.443-1.3.56a17.27 17.27 0 0 1-1.69.28c-.585.07-1.17.163-1.777.256a6.285 6.285 0 0 0-1.603.466c-.477.21-.867.514-1.148.91-.282.397-.455.933-.455 1.633 0 .443.086.84.26 1.143.173.303.39.56.671.746.282.186.607.326.975.42.39.093.78.116 1.17.116.867 0 1.604-.116 2.21-.373.607-.233 1.127-.56 1.495-.933.39-.373.672-.793.867-1.213.173-.443.282-.863.282-1.236l.043-2.775Zm4.225 8.56c-.455.28-1.083.42-1.885.42-.672 0-1.213-.187-1.603-.607-.39-.397-.607-1.05-.607-1.96-.715.91-1.538 1.563-2.513 1.96a7.911 7.911 0 0 1-3.077.606c-.715 0-1.387-.07-2.037-.256a4.487 4.487 0 0 1-1.69-.817 3.823 3.823 0 0 1-1.126-1.446c-.282-.583-.412-1.306-.412-2.145 0-.957.152-1.726.455-2.333a4.104 4.104 0 0 1 1.213-1.47c.499-.372 1.084-.652 1.734-.862a25.249 25.249 0 0 1 4.03-.816 10.4 10.4 0 0 0 1.711-.327c.499-.14.889-.35 1.17-.606.282-.257.434-.653.434-1.167 0-.606-.109-1.072-.325-1.446a2.153 2.153 0 0 0-.845-.84 3.575 3.575 0 0 0-1.149-.396 7.341 7.341 0 0 0-1.235-.093c-1.105 0-2.036.21-2.773.653-.737.443-1.148 1.283-1.192 2.496h-2.621c.043-1.05.238-1.913.606-2.613a4.795 4.795 0 0 1 1.474-1.726 5.876 5.876 0 0 1 2.101-.956c.78-.186 1.625-.28 2.535-.28.715 0 1.43.047 2.145.164a5.452 5.452 0 0 1 1.929.653c.563.326 1.04.793 1.386 1.399.347.606.52 1.376.52 2.356v8.56c0 .652.044 1.119.109 1.422.086.303.303.443.715.443.238 0 .498-.046.801-.116l.022 2.145Zm8.06 2.285c-.303.817-.607 1.516-.91 2.076-.303.56-.628 1.026-.997 1.376-.368.35-.758.606-1.191.77-.434.163-.954.233-1.517.233-.303 0-.607-.023-.932-.07a3.856 3.856 0 0 1-.888-.233V27.2c.238.093.477.187.78.28.303.07.542.117.758.117.542 0 .975-.14 1.344-.397.368-.256.628-.653.801-1.143l1.084-2.822L68.662 6.63h2.946l4.637 13.644h.065L80.773 6.63h2.774l-6.912 18.915Zm7.518-16.49V6.63h2.687V4.134c0-1.353.368-2.379 1.127-3.079.736-.7 1.841-1.05 3.271-1.05.239 0 .52.024.845.07.325.047.607.094.845.187v2.38a2.613 2.613 0 0 0-.736-.164 7.807 7.807 0 0 0-.737-.047c-.628 0-1.127.117-1.473.397-.347.257-.52.746-.52 1.493v2.332h3.055V9.08H89.44v14.274h-2.622V9.055h-2.665ZM95.008.262h2.622v23.044h-2.622V.262Zm16.662 11.266c-.238-.583-.542-1.073-.953-1.493a4.55 4.55 0 0 0-1.409-1.003 4.535 4.535 0 0 0-1.798-.373c-.672 0-1.278.117-1.842.373a3.7 3.7 0 0 0-1.386 1.026c-.39.42-.694.933-.932 1.493a5.028 5.028 0 0 0-.39 1.82h9.122a5.403 5.403 0 0 0-.412-1.843m.628 10.729c-1.191.956-2.686 1.422-4.485 1.422-1.278 0-2.361-.21-3.315-.653a6.489 6.489 0 0 1-2.34-1.819c-.628-.77-1.105-1.703-1.43-2.776-.325-1.072-.498-2.239-.541-3.521 0-1.26.195-2.426.541-3.476.369-1.05.889-1.982 1.539-2.752.65-.77 1.473-1.376 2.361-1.819a7.064 7.064 0 0 1 2.99-.653c1.409 0 2.6.303 3.51.933.932.606 1.69 1.4 2.232 2.332a9.972 9.972 0 0 1 1.17 3.102c.217 1.12.303 2.17.26 3.196h-11.895a7.155 7.155 0 0 0 .238 2.075c.195.653.477 1.237.889 1.75.411.513.931.91 1.56 1.212.628.304 1.386.444 2.231.444 1.105 0 2.015-.257 2.73-.817.694-.536 1.17-1.352 1.387-2.449h2.578c-.26 1.913-1.018 3.312-2.21 4.269m2.774-15.627h3.358l3.813 5.83 3.965-5.83h3.142l-5.503 7.673L130 23.306h-3.358l-4.42-6.904-4.42 6.904h-3.164l5.959-8.77-5.525-7.906Z"/><path fill="#BAD1E7" d="M17.81 10.968a20.483 20.483 0 0 0 0 7.79c3.488.746 6.803 2.519 9.512 5.364-2.427-2.542-3.64-5.9-3.64-9.259 0-3.335 1.213-6.694 3.64-9.26-2.687 2.823-6.024 4.619-9.512 5.365m-7.388 0c2.448.513 4.961.513 7.41 0 .693-3.662 2.405-7.16 5.113-9.983-2.427 2.543-5.612 3.825-8.797 3.825-3.185 0-6.37-1.282-8.796-3.825 2.665 2.823 4.376 6.321 5.07 9.983m7.388 7.767a18.027 18.027 0 0 0-7.41 0c-.693 3.662-2.405 7.16-5.113 9.982 2.426-2.542 5.611-3.825 8.796-3.825 3.185 0 6.37 1.283 8.797 3.825-2.665-2.845-4.355-6.32-5.07-9.982m-7.41 0a20.483 20.483 0 0 0 0-7.79C6.912 10.198 3.597 8.425.888 5.58c2.449 2.542 3.662 5.901 3.662 9.26 0 3.358-1.213 6.694-3.64 9.26 2.708-2.846 6.023-4.642 9.49-5.365"/><path fill="#FFF" d="M.91.962a3.384 3.384 0 0 0 0 4.618c2.708 2.846 6.023 4.618 9.512 5.365A19.859 19.859 0 0 0 5.308.962a2.994 2.994 0 0 0-4.398 0m0 27.755a2.994 2.994 0 0 0 4.398 0 19.766 19.766 0 0 0 5.114-9.982c-3.489.746-6.804 2.519-9.512 5.364a3.384 3.384 0 0 0 0 4.618m26.412 0a2.994 2.994 0 0 1-4.399 0c-2.708-2.845-4.398-6.32-5.113-9.982 3.488.746 6.803 2.519 9.512 5.364a3.384 3.384 0 0 1 0 4.618m0-27.755a3.384 3.384 0 0 1 0 4.618c-2.709 2.846-6.024 4.618-9.512 5.365.693-3.662 2.405-7.16 5.113-9.983a2.994 2.994 0 0 1 4.399 0"/></g></svg>